<?xml version="1.0" encoding="UTF-8"?>
<!DOCTYPE svg PUBLIC "-//W3C//DTD SVG 1.1//EN" "http://www.w3.org/Graphics/SVG/1.1/DTD/svg11.dtd">
<svg version="1.1" xmlns="http://www.w3.org/2000/svg" xmlns:xlink="http://www.w3.org/1999/xlink" x="0" y="0" width="308" height="132" viewBox="96, 45, 308, 132">
  <defs>
    <linearGradient id="Gradient_1" gradientUnits="userSpaceOnUse" x1="249.859" y1="176.906" x2="249.859" y2="45.07">
      <stop offset="0" stop-color="#C10000"/>
      <stop offset="1" stop-color="#000000"/>
    </linearGradient>
  </defs>
  <g id="Layer_1">
    <path d="M187.879,99.211 L187.738,107.648 L180.566,107.648 L180.566,121.078 Q180.566,121.289 174.625,131.801 Q168.684,142.312 160.879,155.988 Q153.074,169.664 149.699,175.641 Q147.379,175.641 142.773,173.074 Q138.168,170.508 133.316,165.762 Q128.465,161.016 125.336,154.863 Q122.207,148.711 122.207,141.68 Q122.207,137.109 123.402,134.438 Q124.598,131.766 126.566,129.129 Q128.535,126.492 128.535,125.086 Q128.535,122.625 124.387,122.625 Q121.785,122.625 119.922,123.961 Q118.059,125.297 113.84,130.148 L104.77,121.922 Q107.371,119.742 109.586,118.617 Q111.801,117.492 113.805,117.105 Q115.809,116.719 119.465,116.578 Q130.785,116.578 134.652,122.309 Q138.52,128.039 138.52,136.898 Q138.52,137.602 137.922,143.332 Q137.324,149.062 137.324,153.352 Q137.324,164.461 141.191,165.445 Q143.301,165.445 146.395,160.102 L167.84,121.359 L167.84,107.648 L96.613,107.648 L96.613,99.211 z M255.73,107.648 L208.902,107.648 L208.902,118.898 Q209.254,118.898 209.465,119.18 Q209.676,119.461 209.957,119.461 Q209.816,119.461 212.875,118.617 Q215.934,117.773 219.871,117.105 Q223.809,116.438 227.465,116.438 Q235.902,116.438 240.754,118.758 Q245.605,121.078 247.75,125.297 Q249.895,129.516 250.352,134.754 Q250.809,139.992 250.809,149.133 L250.809,176.906 Q246.941,175.359 243.848,173.848 Q240.754,172.336 239.559,171.633 Q239.559,169.312 238.715,168.75 Q236.395,170.086 233.512,171.668 Q230.629,173.25 225.988,174.445 Q221.348,175.641 214.949,175.641 Q208.832,175.641 202.996,173.391 Q197.16,171.141 193.539,166.957 Q189.918,162.773 189.918,157.5 Q189.918,152.578 194.488,147.199 Q199.059,141.82 206.723,138.27 Q214.387,134.719 223.457,134.719 Q228.379,134.719 232.809,136.16 Q237.238,137.602 239.559,139.359 L239.559,132.891 Q236.816,129.234 234.074,127.828 Q231.332,126.422 225.637,126.422 Q218.254,126.703 214,127.652 Q209.746,128.602 204.859,130.605 Q199.973,132.609 196.668,133.734 L196.668,128.531 Q197.16,128.109 198.074,127.336 Q198.988,126.562 199.305,126.211 Q199.621,125.859 199.691,125.789 L199.691,107.648 L185.277,107.648 L185.277,99.211 L255.73,99.211 z M239.559,152.156 Q239.559,148.922 232.316,146.742 Q225.074,144.562 222.051,144.562 Q214.387,144.562 208.094,147.797 Q201.801,151.031 198.215,155.285 Q194.629,159.539 194.629,162.281 Q195.613,165.234 199.023,166.324 Q202.434,167.414 206.301,167.414 Q213.473,167.414 219.625,165.516 Q225.777,163.617 230.277,160.84 Q234.777,158.062 237.168,155.531 Q239.559,153 239.559,152.156 z M335.816,107.648 L326.605,107.648 L326.465,176.344 L313.668,170.859 L313.668,160.805 Q308.043,168.047 302.875,171.773 Q297.707,175.5 291.309,175.5 Q285.121,175.5 277.457,170.578 Q269.793,165.656 264.414,157.992 Q259.035,150.328 259.035,142.664 Q259.176,139.781 261.039,135.527 Q262.902,131.273 266.523,126.879 Q270.145,122.484 275.277,119.602 Q280.41,116.719 286.738,116.719 Q294.051,116.719 299.324,121.113 Q304.598,125.508 313.668,135.352 L313.668,107.648 L253.48,107.648 L253.48,99.211 L313.668,99.211 Q313.668,91.828 313.281,87.012 Q312.895,82.195 311.172,76.465 Q309.449,70.734 305.512,63.492 Q301.574,56.25 294.895,47.32 Q294.613,47.32 294.613,46.195 Q294.613,45.352 295.035,45.07 L308.465,45.07 Q315.145,52.453 320.875,64.688 Q326.605,76.922 326.605,99.211 L335.816,99.211 z M310.293,139.641 Q310.293,135.211 305.23,130.957 Q300.168,126.703 293.207,126.703 Q290.605,126.703 284.629,129.516 Q278.652,132.328 273.766,137.812 Q268.879,143.297 268.879,150.891 Q268.879,158.133 272.957,162.703 Q277.035,167.273 282.238,167.273 Q288.285,167.273 294.859,162.176 Q301.434,157.078 305.863,150.398 Q310.293,143.719 310.293,139.641 z M403.105,107.648 L356.277,107.648 L356.277,118.898 Q356.629,118.898 356.84,119.18 Q357.051,119.461 357.332,119.461 Q357.191,119.461 360.25,118.617 Q363.309,117.773 367.246,117.105 Q371.184,116.438 374.84,116.438 Q383.277,116.438 388.129,118.758 Q392.98,121.078 395.125,125.297 Q397.27,129.516 397.727,134.754 Q398.184,139.992 398.184,149.133 L398.184,176.906 Q394.316,175.359 391.223,173.848 Q388.129,172.336 386.934,171.633 Q386.934,169.312 386.09,168.75 Q383.77,170.086 380.887,171.668 Q378.004,173.25 373.363,174.445 Q368.723,175.641 362.324,175.641 Q356.207,175.641 350.371,173.391 Q344.535,171.141 340.914,166.957 Q337.293,162.773 337.293,157.5 Q337.293,152.578 341.863,147.199 Q346.434,141.82 354.098,138.27 Q361.762,134.719 370.832,134.719 Q375.754,134.719 380.184,136.16 Q384.613,137.602 386.934,139.359 L386.934,132.891 Q384.191,129.234 381.449,127.828 Q378.707,126.422 373.012,126.422 Q365.629,126.703 361.375,127.652 Q357.121,128.602 352.234,130.605 Q347.348,132.609 344.043,133.734 L344.043,128.531 Q344.535,128.109 345.449,127.336 Q346.363,126.562 346.68,126.211 Q346.996,125.859 347.066,125.789 L347.066,107.648 L332.652,107.648 L332.652,99.211 L403.105,99.211 z M386.934,152.156 Q386.934,148.922 379.691,146.742 Q372.449,144.562 369.426,144.562 Q361.762,144.562 355.469,147.797 Q349.176,151.031 345.59,155.285 Q342.004,159.539 342.004,162.281 Q342.988,165.234 346.398,166.324 Q349.809,167.414 353.676,167.414 Q360.848,167.414 367,165.516 Q373.152,163.617 377.652,160.84 Q382.152,158.062 384.543,155.531 Q386.934,153 386.934,152.156 z" fill="url(#Gradient_1)"/>
  </g>
</svg>
